<svg width="23" height="22" viewBox="0 0 23 22" fill="none" xmlns="http://www.w3.org/2000/svg">
<path d="M12.6835 4.20825C12.6835 4.57122 12.5393 4.91932 12.2826 5.17598C12.026 5.43263 11.6779 5.57682 11.3149 5.57682V8.31396C12.4038 8.31396 13.4481 7.8814 14.2181 7.11143C14.9881 6.34146 15.4206 5.29715 15.4206 4.20825H12.6835ZM11.3149 5.57682C10.9519 5.57682 10.6038 5.43263 10.3472 5.17598C10.0905 4.91932 9.94633 4.57122 9.94633 4.20825H7.20919C7.20919 5.29715 7.64175 6.34146 8.41173 7.11143C9.1817 7.8814 10.226 8.31396 11.3149 8.31396V5.57682ZM9.94633 4.20825C9.94633 3.84528 10.0905 3.49718 10.3472 3.24053C10.6038 2.98387 10.9519 2.83968 11.3149 2.83968V0.102539C10.226 0.102539 9.1817 0.535104 8.41173 1.30507C7.64175 2.07505 7.20919 3.11935 7.20919 4.20825H9.94633ZM11.3149 2.83968C11.6779 2.83968 12.026 2.98387 12.2826 3.24053C12.5393 3.49718 12.6835 3.84528 12.6835 4.20825H15.4206C15.4206 3.11935 14.9881 2.07505 14.2181 1.30507C13.4481 0.535104 12.4038 0.102539 11.3149 0.102539V2.83968ZM1.96209 16.3283L0.649628 15.9383L0.4375 16.654L0.923343 17.2193L1.96209 16.3283ZM20.6677 16.3283L21.7078 17.2193L22.1923 16.654L21.9802 15.9383L20.6677 16.3283ZM7.20919 13.7882H15.4206V11.0511H7.20919V13.7882ZM7.20919 11.0511C5.73531 11.0506 4.30068 11.5261 3.11877 12.4067C1.93687 13.2872 1.07086 14.5259 0.649628 15.9383L3.27318 16.7184C3.52632 15.8713 4.04614 15.1285 4.7553 14.6006C5.46446 14.0727 6.3251 13.7878 7.20919 13.7882V11.0511ZM11.3149 19.2625C9.73487 19.2643 8.17327 18.9232 6.73787 18.2628C5.30247 17.6024 4.02746 16.6384 3.00083 15.4374L0.923343 17.2193C2.20691 18.7199 3.80061 19.9244 5.59459 20.7497C7.38858 21.575 9.34019 22.0014 11.3149 21.9997V19.2625ZM15.4206 13.7882C17.2778 13.7882 18.8503 15.0227 19.3566 16.7197L21.9802 15.9383C21.559 14.5261 20.6918 13.2876 19.5102 12.4071C18.3286 11.5265 16.8943 11.0509 15.4206 11.0511V13.7882ZM19.629 15.4374C18.6024 16.6384 17.3273 17.6024 15.8919 18.2628C14.4565 18.9232 12.8949 19.2643 11.3149 19.2625V21.9997C13.2896 22.0014 15.2412 21.575 17.0352 20.7497C18.8292 19.9244 20.4243 18.7199 21.7078 17.2193L19.629 15.4374Z" fill="#F54B01"/>
</svg>
